<svg xmlns="http://www.w3.org/2000/svg" width="32" height="33" viewBox="0 0 32 33" fill="none">
  <path d="M16 3.67773C13.4288 3.67773 10.9154 4.44017 8.77759 5.86863C6.63975 7.29709 4.97351 9.32741 3.98957 11.7028C3.00563 14.0783 2.74819 16.6922 3.2498 19.2139C3.75141 21.7357 4.98953 24.052 6.80762 25.8701C8.6257 27.6882 10.9421 28.9263 13.4638 29.4279C15.9856 29.9296 18.5995 29.6721 20.9749 28.6882C23.3503 27.7042 25.3807 26.038 26.8091 23.9001C28.2376 21.7623 29 19.2489 29 16.6777C28.9964 13.231 27.6256 9.92655 25.1884 7.48937C22.7512 5.05218 19.4467 3.68137 16 3.67773ZM16 27.6777C13.8244 27.6777 11.6977 27.0326 9.88873 25.8239C8.07979 24.6152 6.66989 22.8972 5.83733 20.8873C5.00477 18.8773 4.78693 16.6655 5.21137 14.5317C5.63581 12.398 6.68345 10.4379 8.22183 8.89956C9.76021 7.36118 11.7202 6.31353 13.854 5.8891C15.9878 5.46466 18.1995 5.6825 20.2095 6.51506C22.2195 7.34762 23.9375 8.75752 25.1462 10.5665C26.3549 12.3754 27 14.5021 27 16.6777C26.9967 19.5941 25.8367 22.3901 23.7745 24.4523C21.7123 26.5144 18.9164 27.6744 16 27.6777ZM24 16.6777C24 16.943 23.8946 17.1973 23.7071 17.3848C23.5196 17.5724 23.2652 17.6777 23 17.6777H16C15.7348 17.6777 15.4804 17.5724 15.2929 17.3848C15.1054 17.1973 15 16.943 15 16.6777V9.67773C15 9.41252 15.1054 9.15816 15.2929 8.97063C15.4804 8.78309 15.7348 8.67773 16 8.67773C16.2652 8.67773 16.5196 8.78309 16.7071 8.97063C16.8946 9.15816 17 9.41252 17 9.67773V15.6777H23C23.2652 15.6777 23.5196 15.7831 23.7071 15.9706C23.8946 16.1582 24 16.4125 24 16.6777Z" fill="white"/>
</svg>