<svg xmlns="http://www.w3.org/2000/svg" width="40" height="41" viewBox="0 0 40 41" fill="none">
  <path d="M36.6406 18.5495L29.5938 24.6995L31.7047 33.8558C31.8164 34.3345 31.7845 34.8354 31.6131 35.2961C31.4416 35.7567 31.1381 36.1566 30.7406 36.4457C30.3431 36.7348 29.8692 36.9004 29.3782 36.9216C28.8871 36.9429 28.4007 36.8189 27.9797 36.5652L19.9938 31.7214L12.025 36.5652C11.604 36.8189 11.1176 36.9429 10.6265 36.9216C10.1355 36.9004 9.66156 36.7348 9.26406 36.4457C8.86656 36.1566 8.56311 35.7567 8.39164 35.2961C8.22017 34.8354 8.1883 34.3345 8.3 33.8558L10.4078 24.7089L3.35938 18.5495C2.98658 18.228 2.71701 17.8036 2.58447 17.3295C2.45193 16.8553 2.46232 16.3526 2.61434 15.8844C2.76635 15.4162 3.05323 15.0032 3.439 14.6974C3.82477 14.3915 4.29225 14.2064 4.78282 14.1652L14.0734 13.3605L17.7 4.71048C17.8894 4.2566 18.2088 3.8689 18.6181 3.59619C19.0274 3.32349 19.5082 3.17798 20 3.17798C20.4918 3.17798 20.9726 3.32349 21.3819 3.59619C21.7912 3.8689 22.1106 4.2566 22.3 4.71048L25.9375 13.3605L35.225 14.1652C35.7156 14.2064 36.183 14.3915 36.5688 14.6974C36.9546 15.0032 37.2415 15.4162 37.3935 15.8844C37.5455 16.3526 37.5559 16.8553 37.4234 17.3295C37.2908 17.8036 37.0212 18.228 36.6484 18.5495H36.6406Z" fill="#FFA800"/>
</svg>